<?xml version="1.0" standalone="no"?><!DOCTYPE svg PUBLIC "-//W3C//DTD SVG 1.1//EN" "http://www.w3.org/Graphics/SVG/1.1/DTD/svg11.dtd"><svg t="1682256151550" class="icon" viewBox="0 0 1260 1024" version="1.1" xmlns="http://www.w3.org/2000/svg" p-id="14097" xmlns:xlink="http://www.w3.org/1999/xlink" width="157.5" height="128"><path d="M1259.204923 121.304615c-40.487385 57.501538-83.022769 102.242462-127.606154 134.065231v31.901539c0 187.313231-66.56 356.509538-199.522461 507.667692-133.12 151.236923-311.296 226.697846-534.843077 226.697846-144.777846 0-276.716308-38.360615-395.815385-115.003077 12.603077 2.126769 32.925538 3.150769 60.652308 3.150769 119.177846 0 226.619077-37.179077 322.323692-111.694769a262.774154 262.774154 0 0 1-150.055384-52.696615 252.770462 252.770462 0 0 1-92.475077-126.030769c21.267692 4.253538 37.257846 6.380308 47.970461 6.380307 23.394462 0 46.788923-3.150769 70.104616-9.452307a242.136615 242.136615 0 0 1-148.401231-87.985231 251.667692 251.667692 0 0 1-59.076923-164.391385v-6.301538c42.535385 23.394462 80.896 35.052308 115.003077 35.052307C92.947692 341.622154 55.532308 269.390769 55.532308 175.655385c0-48.836923 10.712615-91.372308 31.901538-127.606154 138.397538 168.093538 316.100923 257.417846 533.267692 268.130461a383.369846 383.369846 0 0 1-6.459076-57.501538c0-72.310154 25.048615-133.592615 74.988307-183.532308C739.328 25.048615 800.610462 0 872.920615 0c76.642462 0 139.421538 26.702769 188.258462 79.714462a570.131692 570.131692 0 0 0 162.973538-60.652308 238.355692 238.355692 0 0 1-111.852307 140.524308 619.677538 619.677538 0 0 0 146.904615-38.360616z" fill="#66cc99" p-id="14098"></path></svg>