<?xml version="1.0" standalone="no"?><!DOCTYPE svg PUBLIC "-//W3C//DTD SVG 1.1//EN" "http://www.w3.org/Graphics/SVG/1.1/DTD/svg11.dtd"><svg t="1682429825095" class="icon" viewBox="0 0 1024 1024" version="1.1" xmlns="http://www.w3.org/2000/svg" p-id="1977" xmlns:xlink="http://www.w3.org/1999/xlink" width="200" height="200"><path d="M130.77 755.412c0 22.148 17.938 40.067 40.067 40.067h698.831c0.031 0 0.071 0 0.109 0 22.089 0 39.995-17.905 39.995-39.995 0-0.031 0-0.065 0-0.097v-260.56h-779.006v260.583zM414.383 679.321c2.41-4.107 6.805-6.82 11.831-6.83h27.342c7.333 0.276 13.172 6.291 13.172 13.667s-5.84 13.386-13.147 13.667h-27.375c-0.007 0-0.025 0-0.042 0-7.533 0-13.637-6.106-13.637-13.637 0-2.528 0.687-4.899 1.887-6.93zM264.066 679.321c2.411-4.109 6.812-6.829 11.845-6.83h95.659c5.035 0.005 9.43 2.726 11.812 6.771 1.18 2.016 1.858 4.37 1.858 6.884 0 7.551-6.117 13.671-13.67 13.673h-95.659c-0.005 0-0.019 0-0.027 0-7.54 0-13.653-6.113-13.653-13.653 0-2.521 0.682-4.882 1.877-6.912zM154.732 679.321c2.41-4.107 6.805-6.82 11.831-6.83h54.668c7.333 0.276 13.172 6.291 13.172 13.667s-5.84 13.386-13.147 13.667h-54.701c-0.002 0-0.003 0-0.005 0-7.54 0-13.653-6.113-13.653-13.653 0-2.521 0.682-4.882 1.877-6.912zM869.669 235.162h-698.831c-22.13 0-40.067 17.938-40.067 40.051v41.955h778.987v-41.955c0 0 0 0 0 0 0-22.119-17.932-40.051-40.051-40.051-0.007 0-0.023 0-0.039 0z" fill="#CCFFCC" p-id="1978" data-spm-anchor-id="a313x.7781069.0.i11" class=""></path><path d="M869.669 180.509h-698.831c-52.315 0.006-94.722 42.413-94.741 94.722v480.183c0 0 0 0 0 0 0 52.332 42.416 94.754 94.741 94.761h698.831c52.337 0 94.761-42.425 94.761-94.761h0.019v-480.202c-0.031-52.314-42.446-94.709-94.761-94.709-0.004 0-0.007 0-0.020 0zM909.756 755.412c0 0 0 0 0 0 0 22.139-17.947 40.086-40.086 40.086-0.004 0-0.007 0-0.020 0h-698.812c-0.003 0-0.007 0-0.019 0-22.119 0-40.051-17.932-40.051-40.051 0-0.004 0-0.007 0-0.020v-260.598h778.987v260.583zM909.756 467.484h-778.987v-122.99h778.987v122.99zM909.756 317.165h-778.987v-41.955c0-22.114 17.938-40.051 40.067-40.051h698.831c22.169 0 40.086 17.938 40.086 40.051v41.955z" fill="#504C23" p-id="1979"></path><path d="M426.206 699.823h27.346c0.007 0 0.025 0 0.042 0 7.533 0 13.637-6.106 13.637-13.637 0-2.528-0.687-4.899-1.887-6.93-2.38-4.044-6.769-6.758-11.797-6.764h-27.342c-7.333 0.276-13.172 6.291-13.172 13.667s5.84 13.386 13.147 13.667zM166.558 699.823h54.676c0.007 0 0.025 0 0.042 0 7.533 0 13.637-6.106 13.637-13.637 0-2.528-0.687-4.899-1.887-6.93-2.38-4.044-6.769-6.758-11.797-6.764h-54.668c-7.538 0.029-13.637 6.149-13.637 13.692 0 2.506 0.676 4.854 1.849 6.875 2.4 4.163 6.919 6.761 11.79 6.761zM275.909 699.823h95.659c0.149 0.003 0.325 0.005 0.501 0.005 7.553 0 13.673-6.123 13.673-13.673 0-7.553-6.123-13.673-13.673-13.673-0.175 0-0.351 0.002-0.526 0.006h-95.634c-7.547 0.020-13.654 6.142-13.654 13.692 0 2.506 0.676 4.854 1.849 6.875 2.4 4.163 6.919 6.761 11.808 6.761z" fill="#848D2F" p-id="1980"></path><path d="M130.77 344.495h778.987v122.99h-778.987z" fill="#CCFFCC" p-id="1981" data-spm-anchor-id="a313x.7781069.0.i10" class="selected"></path></svg>