<?xml version="1.0" standalone="no"?><!DOCTYPE svg PUBLIC "-//W3C//DTD SVG 1.1//EN" "http://www.w3.org/Graphics/SVG/1.1/DTD/svg11.dtd"><svg t="1682429667274" class="icon" viewBox="0 0 1024 1024" version="1.1" xmlns="http://www.w3.org/2000/svg" p-id="1400" xmlns:xlink="http://www.w3.org/1999/xlink" width="200" height="200"><path d="M760.551 893.086c8.741-5.919 14.407-15.798 14.407-27.004 0-1.86-0.157-3.685-0.458-5.461l-37.754-225.378c-1.445-8.551 1.366-17.241 7.497-23.351l162.894-162.604c8.844-8.669 11.93-21.671 7.907-33.386-4.481-12.284-15.436-21.172-28.628-22.598l-221.405-32.929c-9.313-1.431-16.944-7.492-20.553-15.716l-96.208-199.681c-5.682-11.792-18.139-19.388-31.727-19.388s-26.045 7.615-31.767 19.41l-96.57 200.519c-4.026 8.198-11.892 13.968-21.186 14.994l-221.215 32.899c-12.829 1.914-23.724 10.756-27.803 22.55-1.090 3.090-1.722 6.655-1.722 10.364 0 8.99 3.7 17.115 9.66 22.935l162.863 162.628c6.112 6.112 8.925 14.82 7.497 23.351l-37.759 225.552c-2.112 12.532 3.278 24.855 14.097 32.313 5.753 3.868 12.838 6.176 20.461 6.176 6.259 0 12.157-1.554 17.324-4.3l193.465-104.203c3.942-2.092 8.298-3.184 12.674-3.184 4.353 0 8.724 1.091 12.674 3.184l193.724 104.322c4.965 2.629 10.85 4.175 17.095 4.175 7.641 0 14.74-2.31 20.643-6.269z" fill="#66CCCC" p-id="1401"></path><path d="M944.943 487.166c15.695-15.478 25.419-36.978 25.419-60.752 0-10.005-1.722-19.61-4.885-28.528-8.926-25.121-29.013-44.939-54.295-53.488-3.15-1.769-14.266-4.447-25.946-4.917l-198.266-29.996-90.495-187.753c-14.527-30.164-45.904-49.674-79.913-49.674s-65.389 19.487-79.956 49.674l-90.441 187.753-208.211 30.946c-33.84 4.946-61.101 28.61-71.179 59.983-2.323 6.432-4.043 16.016-4.043 26.002 0 23.764 9.734 45.263 25.436 60.709l153.067 152.87-35.459 211.904c-0.717 4.13-1.126 8.89-1.126 13.745 0 9.1 1.438 17.867 4.103 26.082 5.495 17.716 17.091 34.177 33.573 45.522 18.977 13.005 42.738 17.728 65.406 14.097 13.503-2.109 25.567-6.982 36.038-14.043l172.801-92.546 181.131 97.508c0.644 0.372 1.326 0.583 2.011 0.915 11.791 6.114 25.743 9.7 40.533 9.7 18.91 0 36.453-5.863 50.907-15.869 27.408-18.88 41.698-52.345 36.214-85.070l-0.372-2.225-35.146-209.697 153.093-152.861zM529.22 790.752c-3.691-2.002-8.077-3.175-12.739-3.184-4.307 0-8.662 1.094-12.602 3.184l-193.667 104.301c-4.969 2.647-10.866 4.203-17.125 4.203-7.623 0-14.708-2.307-20.592-6.259-10.684-7.375-16.073-19.712-13.965-32.229l37.759-225.552c0.234-1.325 0.369-2.851 0.369-4.406 0-7.399-3.006-14.1-7.865-18.944l-162.858-162.623c-5.968-5.826-9.67-13.955-9.67-22.945 0-3.71 0.634-7.274 1.79-10.588 4.013-11.567 14.909-20.431 27.733-22.326l222.233-33.036c9.322-1.428 16.959-7.489 20.57-15.716l96.17-199.662c5.701-11.792 18.178-19.41 31.767-19.41s26.027 7.615 31.727 19.388l96.609 200.541c3.844 7.986 11.383 13.53 20.153 14.86l222.253 33.036c13.25 1.84 23.973 11.003 28.039 23.205 3.766 11.003 0.681 24.003-8.161 32.673l-162.894 162.604c-4.859 4.844-7.865 11.54-7.865 18.944 0 1.555 0.133 3.085 0.393 4.569l37.757 225.411c0.274 1.586 0.43 3.415 0.43 5.28 0 11.202-5.671 21.082-14.297 26.922-5.878 3.956-12.978 6.27-20.619 6.27-6.251 0-12.138-1.55-17.3-4.284l-193.523-104.223z" fill="#66CCCC" p-id="1402"></path><path d="M223.306 460.493c-7.323-0.081-13.23-6.037-13.23-13.376 0-6.585 4.756-12.059 11.021-13.168l8.964-1.437c0.663-0.117 1.431-0.183 2.211-0.183 6.605 0 12.086 4.825 13.106 11.142 0.119 0.722 0.182 1.463 0.182 2.221 0 6.638-4.829 12.147-11.164 13.212l-8.96 1.436c-0.56 0.102-1.202 0.16-1.86 0.16-0.092 0-0.19-0.001-0.285-0.002zM272.432 452.527c-7.287-0.142-13.14-6.083-13.14-13.391 0-6.413 4.509-11.776 10.53-13.088l144.902-27.956 54.61-125.27c2.115-4.773 6.811-8.042 12.271-8.042 7.392 0 13.382 5.988 13.382 13.382 0 1.931-0.407 3.77-1.147 5.425l-57.407 131.629c-1.865 4.195-5.714 7.207-10.322 7.868l-151.149 29.206c-0.714 0.149-1.537 0.235-2.383 0.235-0.054 0-0.11 0-0.167-0.001z" fill="#66CCCC" p-id="1403"></path></svg>